<svg width="49" height="49" viewBox="0 0 49 49" fill="none" xmlns="http://www.w3.org/2000/svg">
<path d="M24.332 1.45996C37.3107 1.45996 47.832 11.9813 47.832 24.96C47.832 37.9387 37.3107 48.46 24.332 48.46C11.3533 48.46 0.832031 37.9387 0.832031 24.96C0.832031 11.9813 11.3533 1.45996 24.332 1.45996Z" fill="#FAFAFA"/>
<path d="M24.332 1.45996C37.3107 1.45996 47.832 11.9813 47.832 24.96C47.832 37.9387 37.3107 48.46 24.332 48.46C11.3533 48.46 0.832031 37.9387 0.832031 24.96C0.832031 11.9813 11.3533 1.45996 24.332 1.45996Z" stroke="#E5E5E5"/>
<path d="M21.332 15.96L24.332 18.96L28.332 14.96M14.332 26.96C14.332 23.189 14.332 21.303 15.504 20.132C16.676 18.961 18.561 18.96 22.332 18.96H26.332C30.103 18.96 31.989 18.96 33.16 20.132C34.331 21.304 34.332 23.189 34.332 26.96C34.332 30.731 34.332 32.617 33.16 33.788C31.988 34.959 30.103 34.96 26.332 34.96H22.332C18.561 34.96 16.675 34.96 15.504 33.788C14.333 32.616 14.332 30.731 14.332 26.96Z" stroke="#0064A8" stroke-width="1.5" stroke-linecap="round" stroke-linejoin="round"/>
</svg>
