<svg width="49" height="49" viewBox="0 0 49 49" fill="none" xmlns="http://www.w3.org/2000/svg">
<path d="M24.332 1.45996C37.3107 1.45996 47.832 11.9813 47.832 24.96C47.832 37.9387 37.3107 48.46 24.332 48.46C11.3533 48.46 0.832031 37.9387 0.832031 24.96C0.832031 11.9813 11.3533 1.45996 24.332 1.45996Z" fill="#FAFAFA"/>
<path d="M24.332 1.45996C37.3107 1.45996 47.832 11.9813 47.832 24.96C47.832 37.9387 37.3107 48.46 24.332 48.46C11.3533 48.46 0.832031 37.9387 0.832031 24.96C0.832031 11.9813 11.3533 1.45996 24.332 1.45996Z" stroke="#E5E5E5"/>
<path d="M27.332 19.4599V33.4599M20.332 16.4599V30.4599M17.585 17.1559L16.358 17.8679C15.369 18.4409 14.875 18.7279 14.604 19.2049C14.332 19.6819 14.332 20.2619 14.332 21.4239V29.5879C14.332 31.1139 14.332 31.8779 14.674 32.3019C14.902 32.5839 15.221 32.7739 15.574 32.8369C16.104 32.9319 16.754 32.5549 18.052 31.8019C18.934 31.2909 19.782 30.7589 20.837 30.9039C21.317 30.9689 21.774 31.1969 22.69 31.6519L26.503 33.5479C27.328 33.9579 27.336 33.9599 28.253 33.9599H30.332C32.218 33.9599 33.16 33.9599 33.746 33.3609C34.332 32.7629 34.332 31.7989 34.332 29.8709V23.1309C34.332 21.2039 34.332 20.2409 33.746 19.6409C33.16 19.0429 32.218 19.0429 30.332 19.0429H28.253C27.336 19.0429 27.328 19.0409 26.503 18.6309L23.172 16.9749C21.781 16.2829 21.085 15.9369 20.344 15.9599C19.603 15.9829 18.932 16.3749 17.585 17.1559Z" stroke="#0064A8" stroke-width="1.5" stroke-linecap="round" stroke-linejoin="round"/>
</svg>
