<svg width="48" height="49" viewBox="0 0 48 49" fill="none" xmlns="http://www.w3.org/2000/svg">
<path d="M24 1.45996C36.9787 1.45996 47.5 11.9813 47.5 24.96C47.5 37.9387 36.9787 48.46 24 48.46C11.0213 48.46 0.5 37.9387 0.5 24.96C0.5 11.9813 11.0213 1.45996 24 1.45996Z" fill="#FAFAFA"/>
<path d="M24 1.45996C36.9787 1.45996 47.5 11.9813 47.5 24.96C47.5 37.9387 36.9787 48.46 24 48.46C11.0213 48.46 0.5 37.9387 0.5 24.96C0.5 11.9813 11.0213 1.45996 24 1.45996Z" stroke="#E5E5E5"/>
<path d="M25.768 26.7681C25.2991 27.237 24.6631 27.5004 24 27.5004C23.3369 27.5004 22.7009 27.237 22.232 26.7681C21.7631 26.2992 21.4997 25.6632 21.4997 25.0001C21.4997 24.3369 21.7631 23.701 22.232 23.2321M31 24.1421C30.6681 24.0944 30.3345 24.0587 30 24.0351M18 25.9651C17.6587 25.9411 17.3253 25.9054 17 25.8581" stroke="#0064A8" stroke-width="1.5" stroke-linecap="round" stroke-linejoin="round"/>
<path d="M30 31.548H28.546C26.686 31.548 24.989 31.917 23.697 32.524C22.405 33.131 20.707 33.5 18.848 33.5C17.815 33.5 16.831 33.386 15.939 33.18C15.366 33.048 15.079 32.982 14.736 32.709C14.5104 32.5159 14.3243 32.2809 14.188 32.017C14 31.619 14 31.233 14 30.46V19.947C14 18.987 15.009 18.326 15.94 18.541C16.375 18.641 16.919 18.806 17.394 18.86M34 30.5V19.614C34 18.12 33.582 17.19 32 16.827C31.08 16.617 30.066 16.5 29 16.5C27.083 16.5 25.333 16.878 24 17.5C23.28 17.836 22.424 18.328 21.5 18.5M14 15L34 35" stroke="#0064A8" stroke-width="1.5" stroke-linecap="round" stroke-linejoin="round"/>
</svg>
