<svg width="49" height="49" viewBox="0 0 49 49" fill="none" xmlns="http://www.w3.org/2000/svg">
<path d="M24.6641 1.45996C37.6428 1.45996 48.1641 11.9813 48.1641 24.96C48.1641 37.9387 37.6428 48.46 24.6641 48.46C11.6854 48.46 1.16406 37.9387 1.16406 24.96C1.16406 11.9813 11.6854 1.45996 24.6641 1.45996Z" fill="#FAFAFA"/>
<path d="M24.6641 1.45996C37.6428 1.45996 48.1641 11.9813 48.1641 24.96C48.1641 37.9387 37.6428 48.46 24.6641 48.46C11.6854 48.46 1.16406 37.9387 1.16406 24.96C1.16406 11.9813 11.6854 1.45996 24.6641 1.45996Z" stroke="#E5E5E5"/>
<path d="M15.1641 24.96C15.1641 20.482 15.1641 18.242 16.5551 16.851C17.9461 15.46 20.1851 15.46 24.6641 15.46C29.1421 15.46 31.3821 15.46 32.7731 16.851C34.1641 18.242 34.1641 20.481 34.1641 24.96C34.1641 29.438 34.1641 31.678 32.7731 33.069C31.3821 34.46 29.1431 34.46 24.6641 34.46C20.1861 34.46 17.9461 34.46 16.5551 33.069C15.1641 31.678 15.1641 29.439 15.1641 24.96Z" stroke="#0064A8" stroke-width="1.5" stroke-linecap="round" stroke-linejoin="round"/>
<path d="M23.6641 20.46H29.6641M23.6641 24.96H29.6641M23.6641 29.46H29.6641M20.6641 20.46C20.6641 20.5926 20.6114 20.7197 20.5176 20.8135C20.4238 20.9073 20.2967 20.96 20.1641 20.96C20.0315 20.96 19.9043 20.9073 19.8105 20.8135C19.7167 20.7197 19.6641 20.5926 19.6641 20.46C19.6641 20.3274 19.7167 20.2002 19.8105 20.1064C19.9043 20.0126 20.0315 19.96 20.1641 19.96C20.2967 19.96 20.4238 20.0126 20.5176 20.1064C20.6114 20.2002 20.6641 20.3274 20.6641 20.46ZM20.6641 24.96C20.6641 25.0926 20.6114 25.2197 20.5176 25.3135C20.4238 25.4073 20.2967 25.46 20.1641 25.46C20.0315 25.46 19.9043 25.4073 19.8105 25.3135C19.7167 25.2197 19.6641 25.0926 19.6641 24.96C19.6641 24.8274 19.7167 24.7002 19.8105 24.6064C19.9043 24.5126 20.0315 24.46 20.1641 24.46C20.2967 24.46 20.4238 24.5126 20.5176 24.6064C20.6114 24.7002 20.6641 24.8274 20.6641 24.96ZM20.6641 29.46C20.6641 29.5926 20.6114 29.7197 20.5176 29.8135C20.4238 29.9073 20.2967 29.96 20.1641 29.96C20.0315 29.96 19.9043 29.9073 19.8105 29.8135C19.7167 29.7197 19.6641 29.5926 19.6641 29.46C19.6641 29.3274 19.7167 29.2002 19.8105 29.1064C19.9043 29.0126 20.0315 28.96 20.1641 28.96C20.2967 28.96 20.4238 29.0126 20.5176 29.1064C20.6114 29.2002 20.6641 29.3274 20.6641 29.46Z" stroke="#0064A8" stroke-width="1.5" stroke-linecap="round" stroke-linejoin="round"/>
</svg>
