<svg width="48" height="49" viewBox="0 0 48 49" fill="none" xmlns="http://www.w3.org/2000/svg">
<path d="M24 1.45996C36.9787 1.45996 47.5 11.9813 47.5 24.96C47.5 37.9387 36.9787 48.46 24 48.46C11.0213 48.46 0.5 37.9387 0.5 24.96C0.5 11.9813 11.0213 1.45996 24 1.45996Z" fill="#FAFAFA"/>
<path d="M24 1.45996C36.9787 1.45996 47.5 11.9813 47.5 24.96C47.5 37.9387 36.9787 48.46 24 48.46C11.0213 48.46 0.5 37.9387 0.5 24.96C0.5 11.9813 11.0213 1.45996 24 1.45996Z" stroke="#E5E5E5"/>
<path d="M24 34.96C29.5228 34.96 34 30.4828 34 24.96C34 19.4371 29.5228 14.96 24 14.96C18.4772 14.96 14 19.4371 14 24.96C14 30.4828 18.4772 34.96 24 34.96Z" stroke="#0064A8" stroke-width="1.5" stroke-linecap="round" stroke-linejoin="round"/>
<path d="M20 27.96C20.4657 28.5809 21.0697 29.085 21.7639 29.4321C22.4582 29.7792 23.2238 29.96 24 29.96C24.7762 29.96 25.5418 29.7792 26.2361 29.4321C26.9303 29.085 27.5343 28.5809 28 27.96M27 20.96C27 20.96 26 21.96 26 22.96C26.75 21.96 28.25 21.96 29 22.96M21 20.96C21 20.96 22 21.96 22 22.96C21.25 21.96 19.75 21.96 19 22.96" stroke="#0064A8" stroke-width="1.5" stroke-linecap="round" stroke-linejoin="round"/>
</svg>
