<svg width="49" height="49" viewBox="0 0 49 49" fill="none" xmlns="http://www.w3.org/2000/svg">
<path d="M24.6641 1.45996C37.6428 1.45996 48.1641 11.9813 48.1641 24.96C48.1641 37.9387 37.6428 48.46 24.6641 48.46C11.6854 48.46 1.16406 37.9387 1.16406 24.96C1.16406 11.9813 11.6854 1.45996 24.6641 1.45996Z" fill="#FAFAFA"/>
<path d="M24.6641 1.45996C37.6428 1.45996 48.1641 11.9813 48.1641 24.96C48.1641 37.9387 37.6428 48.46 24.6641 48.46C11.6854 48.46 1.16406 37.9387 1.16406 24.96C1.16406 11.9813 11.6854 1.45996 24.6641 1.45996Z" stroke="#E5E5E5"/>
<path d="M23.6641 15H22.6641C19.3841 15 17.7451 15 16.5831 15.814C16.1531 16.1151 15.7791 16.489 15.4781 16.919C14.6641 18.08 14.6641 19.72 14.6641 23C14.6641 26.28 14.6641 27.919 15.4781 29.081C15.7791 29.511 16.1531 29.8849 16.5831 30.186C17.7441 31 19.3841 31 22.6641 31H26.6641C29.9441 31 31.5831 31 32.7451 30.186C33.175 29.8849 33.549 29.511 33.8501 29.081C34.5301 28.111 34.6421 26.809 34.6601 24.5" stroke="#0064A8" stroke-width="1.5" stroke-linecap="round" stroke-linejoin="round"/>
<path d="M23.6641 28H25.6641M24.6641 31V35M20.6641 35H28.6641M25.6641 19.667C25.6641 20.955 26.6711 22 27.9141 22H32.6391C33.7571 22 34.6641 21.06 34.6641 19.9C34.6641 18.74 33.7471 17.8 32.6291 17.8C32.7541 16.364 31.6441 15 30.1641 15C28.8701 15 27.8071 16.03 27.6981 17.344C26.5571 17.457 25.6641 18.454 25.6641 19.667Z" stroke="#0064A8" stroke-width="1.5" stroke-linecap="round" stroke-linejoin="round"/>
</svg>
